<?xml version="1.0" encoding="utf-8"?>
<!-- Generator: Adobe Illustrator 19.0.0, SVG Export Plug-In . SVG Version: 6.00 Build 0)  -->
<svg version="1.1" id="Layer_1" xmlns="http://www.w3.org/2000/svg" xmlns:xlink="http://www.w3.org/1999/xlink" x="0px" y="0px"
	 viewBox="0 0 500 500" enable-background="new 0 0 500 500" xml:space="preserve">
<g id="XMLID_782_">
	<path id="XMLID_787_" fill="#ECC396" d="M222,410.7l-19.3,5.7c-5.4,1.6-11-1.5-12.5-6.9l-23.4-79.6c-1.6-5.4,1.5-11,6.9-12.5
		l19.3-5.7c5.4-1.6,11,1.5,12.5,6.9l23.4,79.6C230.4,403.5,227.3,409.1,222,410.7z"/>
	<path id="XMLID_786_" fill="#ECC396" d="M202,481.2l-17.6-3.1c-4.9-0.9-8.1-5.5-7.3-10.4l14.9-83.9c0.9-4.9,5.5-8.1,10.4-7.3
		l17.6,3.1c4.9,0.9,8.1,5.5,7.3,10.4l-14.9,83.9C211.5,478.8,206.9,482.1,202,481.2z"/>
	<path id="XMLID_785_" fill="#775CA7" d="M214,485.9l-30.7-5.4c-3.8-0.7-6.4-4.3-5.7-8.1l2.4-13.7c0.7-3.8,4.3-6.4,8.1-5.7l30.7,5.4
		c3.8,0.7,6.4,4.3,5.7,8.1l-2.4,13.7C221.4,484.1,217.8,486.6,214,485.9z"/>
</g>
<g id="XMLID_788_">
	<path id="XMLID_145_" fill="#6A52A2" d="M246.8,251.1l-10.2,10.2c-2.8,2.8-7.4,2.8-10.2,0l-49.9-49.9c-2.8-2.8-2.8-7.4,0-10.2
		l10.2-10.2c2.8-2.8,7.4-2.8,10.2,0l49.9,49.9C249.6,243.6,249.6,248.2,246.8,251.1z"/>
	<path id="XMLID_144_" fill="#ECC396" d="M227.2,260.6L217,250.5c-2.8-2.8-2.8-7.4,0-10.2l49.9-49.9c2.8-2.8,7.4-2.8,10.2,0
		l10.2,10.2c2.8,2.8,2.8,7.4,0,10.2l-49.9,49.9C234.6,263.5,230,263.5,227.2,260.6z"/>
	<path id="XMLID_354_" fill="#7059A6" d="M220.1,223.5c0,0,9.5,2.2,20.7-5.3c0,0,7.4,37.2,4.9,69.3c-2.5,32-6.1,46.5-6.1,46.5
		s-8.9-38.5-16.3-49c-7.4-10.5-15.3-27.8-21.9-33c-6.7-5.2-1-24.3-1-24.3L220.1,223.5z"/>
</g>
<path id="XMLID_356_" fill="#775CA7" d="M178.5,469.4l-1.1-28c0,0,38.3,0,44.9,7c0,0-7.1,10.1-7.6,13.4
	C214,465.2,178.5,469.4,178.5,469.4z"/>
<path id="XMLID_358_" fill="#FFF278" d="M177.9,455.4c0,0,16.3-11.1,39,1.2l-0.3,2.2c0,0-27.7-4.4-38.1,4.1L177.9,455.4z"/>
<rect id="XMLID_136_" x="137.7" y="170.6" fill="#ECC396" width="39.5" height="15"/>
<g id="XMLID_343_">
	<defs>
		<path id="XMLID_344_" d="M214.6,229.4c0-27.5-22.3-49.8-49.8-49.8h-14.7c-27.5,0-49.8,22.3-49.8,49.8v88.8c0,0.9,0.1,1.8,0.3,2.7
			c-0.2,0.8-0.3,1.6-0.3,2.5c0,14.3,25.3,25.9,56.6,25.9c31.1,0,56.3-11.5,56.6-25.7c0.7-1.6,1.1-3.5,1.1-5.4V229.4z"/>
	</defs>
	<clipPath id="XMLID_2_">
		<use xlink:href="#XMLID_344_"  overflow="visible"/>
	</clipPath>
	<rect id="XMLID_140_" x="61.8" y="161.3" clip-path="url(#XMLID_2_)" fill="#FFE7B3" width="199.3" height="217.9"/>
	<path id="XMLID_345_" clip-path="url(#XMLID_2_)" fill="#775CA7" d="M133.1,182.7c0,0,32.5-0.1,44.1,8.3c1.7,1.2,7.9,5.2,7.9,5.2
		s0.6-23.6-6.5-28.9l43.1,21.3c0,0,25,79.5,24.3,84.6c-0.7,5.1,10.6,57.6,6.3,76.2c-4.3,18.6-29.7,47.2-34.3,47.2
		c-4.6,0-78.3-12.6-98.2-17.3c-19.9-4.7-63.8-12-65.1-26.6s15.9-56.7,20.6-79.5c4.7-22.8,23.7-78.7,25.1-82
		C101.7,187.8,133.1,182.7,133.1,182.7z"/>
	<path id="XMLID_349_" clip-path="url(#XMLID_2_)" fill="#FFF278" d="M217.9,264.5c0,0-49.9,22.3-117.6,3.1s-9.4,5,0,8.5
		c9.4,3.5,71,15.9,117.6-2.9C264.5,254.3,221.2,263.2,217.9,264.5z"/>
</g>
<circle id="XMLID_89_" fill="#434343" cx="231.9" cy="107.2" r="10.2"/>
<g id="XMLID_99_">
	<defs>
		<path id="XMLID_86_" d="M218.5,177.2h-109c-7.4,0-13.4-6-13.4-13.4V59.6c0-7.4,6-13.4,13.4-13.4h109c7.4,0,13.4,6,13.4,13.4v104.1
			C231.9,171.1,225.9,177.2,218.5,177.2z"/>
	</defs>
	<clipPath id="XMLID_3_">
		<use xlink:href="#XMLID_86_"  overflow="visible"/>
	</clipPath>
	<rect id="XMLID_98_" x="52.9" y="25.7" clip-path="url(#XMLID_3_)" fill="#FFE7B3" width="208.3" height="168.9"/>
	<rect id="XMLID_101_" x="94.7" y="153.7" clip-path="url(#XMLID_3_)" fill="#ECC396" width="141" height="27.9"/>
	<path id="XMLID_102_" clip-path="url(#XMLID_3_)" fill="#FFE7B3" d="M244.2,173.7H108.4c-4.4,0-8.1-3.6-8.1-8.1V60.2
		c0-4.4,3.6-8.1,8.1-8.1h135.8c4.4,0,8.1,3.6,8.1,8.1v105.5C252.2,170.1,248.6,173.7,244.2,173.7z"/>
</g>
<circle id="XMLID_87_" fill="#434343" cx="152.8" cy="107.2" r="10.2"/>
<g id="XMLID_91_">
	<path id="XMLID_92_" fill="#434343" d="M205.4,125.5c4.1,0,7.5-3.1,8-7.1c0.1-0.5-0.4-0.9-0.9-0.9h-14.2c-0.6,0-1,0.5-0.9,1
		C198,122.4,201.3,125.5,205.4,125.5z"/>
</g>
<path id="XMLID_88_" fill="#5D4137" d="M233.6,50.4c0,0,8.6,23.4,2.8,30.1c-5.7,6.7-11.2,8.5-11.2,8.5s3.2-9,0-13
	c0,0-1.5,9.7-11.7,13c0,0,2.2-6.2,0-10.5c0,0-3.7,8.7-8.2,10.5c-4.5,1.7-10.7,2.7-14,2.5c0,0,7.6-9,7.8-18.9c0,0,1.7-2.5-10.7,11.5
	c0,0-6.6-8-4.6-15.4c0,0-8.4,6.7-5.7,18.2c1.5,6.5,3.5,10.5,3.5,10.5s-7.7-3.5-13.5-9.5c-5.7-6-6.5-14.9-7.2-21.2c0,0,0,0-4.4,11
	c-3.4,8.4-4,11.5-4,11.5S134,73.5,137,65.3c0,0-8.5,9.7-4.1,29.1c0,0-20.3-3.2-16.3-27.3c4-24.2,20.7-28.4,37.9-27.2
	s60.6,0.7,60.6,0.7S231,41.9,233.6,50.4z"/>
<path id="XMLID_90_" fill="#5D4137" d="M213.5,42.7c0,0-1.4-10.1-33.4-9.8c-32,0.3-88.4,0.4-95,2.6c-7.2,2.5-23.9,14.3-23.3,31.9
	c0.7,17.6,6.5,75.8,9.9,88.8c3.3,13,19.1,15,19.1,15l-13-107.8l59.8-3.3L213.5,42.7z"/>
<path id="XMLID_100_" fill="#5D4137" d="M119.7,59.8c0,0-3.3-8.7-3.6-9.3c-0.3-0.6-17.6-2.1-23.3-2.7c-5.6-0.6-22.9,7.8-22.9,7.8
	s5.8,89.7,4.5,94.2c-1.3,4.5,11.5,20.1,11.5,20.1s6.1,3.9,14.4,1.3c8.3-2.7,4.2-18.5,4.5-35.3c0.2-8.1,0.2-13.4,0.1-16.8l1.3-13.1
	c6.5,10.6,13.4,19.1,13.4,19.1s-3.7-12.9-6.3-24.4c-2.7-11.5,6.3-28.7,6.3-28.7V59.8z"/>
<path id="XMLID_93_" fill="#FFE7B3" d="M106.2,112.3c0,0-4-17.4-16-9.4s2.6,34.2,16,32.4V112.3z"/>
<path id="XMLID_146_" fill="#5D4137" d="M67,50.2c0,0-5.1-13-18.4-10.5S24,51.4,27.3,78S30,163.1,20,179.7c0,0,20.6-9.3,29.9-27.3
	c0,0-0.8,10.3-6.4,18.8c0,0,15.8-7.3,21.8-41.8s5.9-51.4,5.7-54C70.9,72.7,67,50.2,67,50.2z"/>
<g id="XMLID_778_">
	<path id="XMLID_775_" fill="#FFE0B2" d="M156.1,415.2l-20.5,2.6c-5.7,0.7-10.9-3.3-11.6-9l-10.7-84.8c-0.7-5.7,3.3-10.9,9-11.6
		l20.5-2.6c5.7-0.7,10.9,3.3,11.6,9l10.7,84.8C165.9,409.2,161.8,414.4,156.1,415.2z"/>
	<path id="XMLID_777_" fill="#FFE0B2" d="M124.2,483.6l-17.3-6.1c-4.8-1.7-7.4-7-5.7-11.8l28.9-82.9c1.7-4.8,7-7.4,11.8-5.7
		l17.3,6.1c4.8,1.7,7.4,7,5.7,11.8L136,477.9C134.3,482.7,129.1,485.3,124.2,483.6z"/>
	<path id="XMLID_776_" fill="#775CA7" d="M135.6,490.4l-30.3-10.5c-3.8-1.3-5.8-5.4-4.5-9.2l4.7-13.6c1.3-3.8,5.4-5.8,9.2-4.5
		l30.3,10.5c3.8,1.3,5.8,5.4,4.5,9.2l-4.7,13.6C143.5,489.7,139.4,491.7,135.6,490.4z"/>
</g>
<path id="XMLID_352_" fill="#775CA7" d="M214.6,300.1c0,0-0.3,13.1,0,26c0.2,9.2,0.3,17,3.3,25.4c0,0-9.6-1.7-22,2.2
	c-20.8,6.6-51.1,19.4-68.8,12.9c-28.1-10.3-26.8-9.2-26.8-9.2s-1.3-46.8,0-57.4H214.6z"/>
<path id="XMLID_355_" fill="#775CA7" d="M103.2,463.8V438c0,0,38.9,1,49.8,12.9c0,0-13.7,11.5-13.9,14.9S103.2,463.8,103.2,463.8z"
	/>
<path id="XMLID_353_" fill="#FFF278" d="M102.4,455.4c0,0,19.1-8.7,41.8,3.6l-2.6,3.2c0,0-27.9-6.9-38.4,1.6L102.4,455.4z"/>
<path id="XMLID_351_" opacity="0.55" fill="#775CA7" d="M100.4,292.8c0,0-1.3,102.3-17.9,128.2c0,0,33.4,19.9,80.5,16.6
	s61.1-12.6,67.7-16.5c0,0,4.6-19,1.3-33.6c-1.9-8.4-5-15.5-8.4-24.9c-4.1-11.3-6-15.5-7.2-26.6c-1.9-17.1-2.2-34.1-1.8-40.5
	L100.4,292.8z"/>
<g id="XMLID_369_">
	<circle id="XMLID_357_" fill="#C5C9E6" cx="436.2" cy="53.6" r="41.4"/>
	<path id="XMLID_359_" fill="#5D4137" d="M398.9,77.8l-259,233c0,0-4.8,7.9,9.3,6.7L410.9,86.4C410.9,86.4,411.8,66.1,398.9,77.8z"
		/>
	<path id="XMLID_381_" fill="#E8EAF6" d="M469.4,65.9c-1.5,3.4-3.5,6.4-5.9,8.9c-0.4,0.5-0.8,0.9-1.3,1.3c-1.6,1.1-3.6,1.4-5.5,0.6
		c-2.9-1.2-4.3-4.6-3-7.5c0.3-0.7,0.7-1.3,1.2-1.9c0,0,0.1,0,0.1,0c0.2-0.2,0.4-0.3,0.6-0.5c0,0,0,0,0,0c1.7-1.5,3.1-3.4,4-5.6
		c1.6-3.7,1.6-7.7,0.4-11.2c0,0,0,0,0,0c-0.1-0.3-0.2-0.7-0.4-1c0,0,0,0,0,0c-0.3-1.2-0.3-2.5,0.2-3.8c1.2-2.8,4.5-4.2,7.3-3
		c1.4,0.6,2.3,1.6,2.9,2.9c0,0.1,0,0.1,0,0.1c0.1,0.3,0.2,0.7,0.3,1c0,0.1,0,0.1,0,0.2C472.4,52.5,472.2,59.4,469.4,65.9z"/>
	<circle id="XMLID_360_" fill="#E8EAF6" cx="445" cy="80.4" r="5.6"/>
	<path id="XMLID_361_" fill="#FFFFFF" d="M469.1,60c-0.6,2-1.5,3.8-2.7,5.3c-0.2,0.3-0.4,0.5-0.6,0.8c-0.8,0.7-1.9,1-3,0.7
		c-1.7-0.5-2.7-2.3-2.2-4c0.1-0.4,0.3-0.8,0.6-1.1c0,0,0,0,0,0c0.1-0.1,0.2-0.2,0.3-0.3c0,0,0,0,0,0c0.8-0.9,1.5-2.1,1.8-3.4
		c0.6-2.2,0.3-4.4-0.6-6.3c0,0,0,0,0,0c-0.1-0.2-0.2-0.4-0.3-0.5c0,0,0,0,0,0c-0.3-0.6-0.3-1.4-0.1-2.1c0.5-1.7,2.2-2.6,3.9-2.2
		c0.8,0.2,1.4,0.7,1.8,1.4c0,0,0,0,0,0.1c0.1,0.2,0.2,0.3,0.2,0.5c0,0,0,0.1,0,0.1C469.8,52.4,470.2,56.2,469.1,60z"/>
	<circle id="XMLID_362_" fill="#FFFFFF" cx="446.2" cy="81.6" r="2.9"/>
</g>
<g id="XMLID_789_">
	<path id="XMLID_143_" fill="#FFE0B2" d="M178.3,275.8l-9.8-13.8c-2.7-3.8-1.8-9.2,2-11.9l67.7-48.3c3.8-2.7,9.2-1.8,11.9,2
		l9.8,13.8c2.7,3.8,1.8,9.2-2,11.9l-67.7,48.3C186.3,280.5,181,279.6,178.3,275.8z"/>
	<path id="XMLID_141_" fill="#8067AD" d="M205.1,260.1l-10.6,13.2c-2.9,3.7-8.3,4.3-12,1.3l-65-51.9c-3.7-2.9-4.3-8.3-1.3-12
		l10.6-13.2c2.9-3.7,8.3-4.3,12-1.3l65,51.9C207.4,251.1,208,256.4,205.1,260.1z"/>
</g>
<path id="XMLID_350_" fill="#8067AD" d="M182.8,231.4c0,0,9.5,2.2,20.7-5.3c0,0,7.4,37.2,4.9,69.3s-6.1,46.5-6.1,46.5
	s-8.9-38.5-16.3-49c-7.4-10.5-15.3-27.8-21.9-33c-6.7-5.2-1-24.3-1-24.3L182.8,231.4z"/>
</svg>
