<?xml version="1.0" encoding="utf-8"?>
<!-- Generator: Adobe Illustrator 19.0.0, SVG Export Plug-In . SVG Version: 6.00 Build 0)  -->
<svg version="1.1" xmlns="http://www.w3.org/2000/svg" xmlns:xlink="http://www.w3.org/1999/xlink" x="0px" y="0px"
	 viewBox="0 0 500 500" enable-background="new 0 0 500 500" xml:space="preserve">
<g id="Layer_1" display="none">
	<g id="XMLID_782_" display="inline">
		<path id="XMLID_787_" fill="#ECC396" d="M213,410.7l-19.3,5.7c-5.4,1.6-11-1.5-12.5-6.9l-23.4-79.6c-1.6-5.4,1.5-11,6.9-12.5
			l19.3-5.7c5.4-1.6,11,1.5,12.5,6.9l23.4,79.6C221.5,403.5,218.4,409.1,213,410.7z"/>
		<path id="XMLID_786_" fill="#ECC396" d="M193,481.2l-17.6-3.1c-4.9-0.9-8.1-5.5-7.3-10.4l14.9-83.9c0.9-4.9,5.5-8.1,10.4-7.3
			l17.6,3.1c4.9,0.9,8.1,5.5,7.3,10.4l-14.9,83.9C202.6,478.8,197.9,482.1,193,481.2z"/>
		<path id="XMLID_785_" fill="#775CA7" d="M205,485.9l-30.7-5.4c-3.8-0.7-6.4-4.3-5.7-8.1l2.4-13.7c0.7-3.8,4.3-6.4,8.1-5.7
			l30.7,5.4c3.8,0.7,6.4,4.3,5.7,8.1l-2.4,13.7C212.5,484.1,208.8,486.6,205,485.9z"/>
	</g>
	<g id="XMLID_788_" display="inline">
		<path id="XMLID_145_" fill="#6A52A2" d="M237.9,251.1l-10.2,10.2c-2.8,2.8-7.4,2.8-10.2,0l-49.9-49.9c-2.8-2.8-2.8-7.4,0-10.2
			l10.2-10.2c2.8-2.8,7.4-2.8,10.2,0l49.9,49.9C240.7,243.6,240.7,248.2,237.9,251.1z"/>
		<path id="XMLID_144_" fill="#ECC396" d="M218.2,260.6l-10.2-10.2c-2.8-2.8-2.8-7.4,0-10.2l49.9-49.9c2.8-2.8,7.4-2.8,10.2,0
			l10.2,10.2c2.8,2.8,2.8,7.4,0,10.2l-49.9,49.9C225.7,263.5,221.1,263.5,218.2,260.6z"/>
		<path id="XMLID_354_" fill="#7059A6" d="M211.2,223.5c0,0,9.5,2.2,20.7-5.3c0,0,7.4,37.2,4.9,69.3c-2.5,32-6.1,46.5-6.1,46.5
			s-8.9-38.5-16.3-49c-7.4-10.5-15.3-27.8-21.9-33c-6.7-5.2-1-24.3-1-24.3L211.2,223.5z"/>
	</g>
	<path id="XMLID_356_" display="inline" fill="#775CA7" d="M169.5,469.4l-1.1-28c0,0,38.3,0,44.9,7c0,0-7.1,10.1-7.6,13.4
		C205,465.2,169.5,469.4,169.5,469.4z"/>
	<path id="XMLID_358_" display="inline" fill="#FFF278" d="M168.9,455.4c0,0,16.3-11.1,39,1.2l-0.3,2.2c0,0-27.7-4.4-38.1,4.1
		L168.9,455.4z"/>
	<rect id="XMLID_136_" x="128.7" y="170.6" display="inline" fill="#ECC396" width="39.5" height="15"/>
	<g id="XMLID_343_" display="inline">
		<defs>
			<path id="XMLID_344_" d="M205.6,229.4c0-27.5-22.3-49.8-49.8-49.8h-14.7c-27.5,0-49.8,22.3-49.8,49.8v88.8c0,0.9,0.1,1.8,0.3,2.7
				c-0.2,0.8-0.3,1.6-0.3,2.5c0,14.3,25.3,25.9,56.6,25.9c31.1,0,56.3-11.5,56.6-25.7c0.7-1.6,1.1-3.5,1.1-5.4V229.4z"/>
		</defs>
		<clipPath id="XMLID_2_">
			<use xlink:href="#XMLID_344_"  overflow="visible"/>
		</clipPath>
		<rect id="XMLID_140_" x="52.9" y="161.3" clip-path="url(#XMLID_2_)" fill="#FFE7B3" width="199.3" height="217.9"/>
		<path id="XMLID_345_" clip-path="url(#XMLID_2_)" fill="#775CA7" d="M124.1,182.7c0,0,32.5-0.1,44.1,8.3c1.7,1.2,7.9,5.2,7.9,5.2
			s0.6-23.6-6.5-28.9l43.1,21.3c0,0,25,79.5,24.3,84.6c-0.7,5.1,10.6,57.6,6.3,76.2c-4.3,18.6-29.7,47.2-34.3,47.2
			c-4.6,0-78.3-12.6-98.2-17.3c-19.9-4.7-63.8-12-65.1-26.6s15.9-56.7,20.6-79.5c4.7-22.8,23.7-78.7,25.1-82
			S124.1,182.7,124.1,182.7z"/>
		<path id="XMLID_349_" clip-path="url(#XMLID_2_)" fill="#FFF278" d="M208.9,264.5c0,0-49.9,22.3-117.6,3.1s-9.4,5,0,8.5
			c9.4,3.5,71,15.9,117.6-2.9C255.5,254.3,212.3,263.2,208.9,264.5z"/>
	</g>
	<circle id="XMLID_89_" display="inline" fill="#434343" cx="223" cy="107.2" r="10.2"/>
	<g id="XMLID_99_" display="inline">
		<defs>
			<path id="XMLID_86_" d="M209.5,177.2h-109c-7.4,0-13.4-6-13.4-13.4V59.6c0-7.4,6-13.4,13.4-13.4h109c7.4,0,13.4,6,13.4,13.4
				v104.1C223,171.1,216.9,177.2,209.5,177.2z"/>
		</defs>
		<clipPath id="XMLID_3_">
			<use xlink:href="#XMLID_86_"  overflow="visible"/>
		</clipPath>
		<rect id="XMLID_98_" x="43.9" y="25.7" clip-path="url(#XMLID_3_)" fill="#FFE7B3" width="208.3" height="168.9"/>
		<rect id="XMLID_101_" x="85.8" y="153.7" clip-path="url(#XMLID_3_)" fill="#ECC396" width="141" height="27.9"/>
		<path id="XMLID_102_" clip-path="url(#XMLID_3_)" fill="#FFE7B3" d="M235.2,173.7H99.4c-4.4,0-8.1-3.6-8.1-8.1V60.2
			c0-4.4,3.6-8.1,8.1-8.1h135.8c4.4,0,8.1,3.6,8.1,8.1v105.5C243.3,170.1,239.7,173.7,235.2,173.7z"/>
	</g>
	<circle id="XMLID_87_" display="inline" fill="#434343" cx="143.9" cy="107.2" r="10.2"/>
	<g id="XMLID_91_" display="inline">
		<path id="XMLID_92_" fill="#434343" d="M196.5,125.5c4.1,0,7.5-3.1,8-7.1c0.1-0.5-0.4-0.9-0.9-0.9h-14.2c-0.6,0-1,0.5-0.9,1
			C189,122.4,192.4,125.5,196.5,125.5z"/>
	</g>
	<path id="XMLID_88_" display="inline" fill="#5D4137" d="M224.6,50.4c0,0,8.6,23.4,2.8,30.1c-5.7,6.7-11.2,8.5-11.2,8.5s3.2-9,0-13
		c0,0-1.5,9.7-11.7,13c0,0,2.2-6.2,0-10.5c0,0-3.7,8.7-8.2,10.5c-4.5,1.7-10.7,2.7-14,2.5c0,0,7.6-9,7.8-18.9c0,0,1.7-2.5-10.7,11.5
		c0,0-6.6-8-4.6-15.4c0,0-8.4,6.7-5.7,18.2c1.5,6.5,3.5,10.5,3.5,10.5s-7.7-3.5-13.5-9.5c-5.7-6-6.5-14.9-7.2-21.2c0,0,0,0-4.4,11
		c-3.4,8.4-4,11.5-4,11.5S125,73.5,128,65.3c0,0-8.5,9.7-4.1,29.1c0,0-20.3-3.2-16.3-27.3c4-24.2,20.7-28.4,37.9-27.2
		s60.6,0.7,60.6,0.7S222,41.9,224.6,50.4z"/>
	<path id="XMLID_90_" display="inline" fill="#5D4137" d="M204.5,42.7c0,0-1.4-10.1-33.4-9.8c-32,0.3-88.4,0.4-95,2.6
		C69,37.9,52.2,49.8,52.9,67.4c0.7,17.6,6.5,75.8,9.9,88.8c3.3,13,19.1,15,19.1,15l-13-107.8l59.8-3.3L204.5,42.7z"/>
	<path id="XMLID_100_" display="inline" fill="#5D4137" d="M110.7,59.8c0,0-3.3-8.7-3.6-9.3s-17.6-2.1-23.3-2.7
		c-5.6-0.6-22.9,7.8-22.9,7.8s5.8,89.7,4.5,94.2c-1.3,4.5,11.5,20.1,11.5,20.1s6.1,3.9,14.4,1.3c8.3-2.7,4.2-18.5,4.5-35.3
		c0.2-8.1,0.2-13.4,0.1-16.8l1.3-13.1c6.5,10.6,13.4,19.1,13.4,19.1s-3.7-12.9-6.3-24.4c-2.7-11.5,6.3-28.7,6.3-28.7V59.8z"/>
	<path id="XMLID_93_" display="inline" fill="#FFE7B3" d="M97.3,112.3c0,0-4-17.4-16-9.4s2.6,34.2,16,32.4V112.3z"/>
	<path id="XMLID_146_" display="inline" fill="#5D4137" d="M58.1,50.2c0,0-5.1-13-18.4-10.5S15,51.4,18.4,78s2.7,85.1-7.3,101.7
		c0,0,20.6-9.3,29.9-27.3c0,0-0.8,10.3-6.4,18.8c0,0,15.8-7.3,21.8-41.8s5.9-51.4,5.7-54C61.9,72.7,58.1,50.2,58.1,50.2z"/>
	<g id="XMLID_778_" display="inline">
		<path id="XMLID_775_" fill="#FFE0B2" d="M147.1,415.2l-20.5,2.6c-5.7,0.7-10.9-3.3-11.6-9l-10.7-84.8c-0.7-5.7,3.3-10.9,9-11.6
			l20.5-2.6c5.7-0.7,10.9,3.3,11.6,9l10.7,84.8C156.9,409.2,152.9,414.4,147.1,415.2z"/>
		<path id="XMLID_777_" fill="#FFE0B2" d="M115.3,483.6l-17.3-6.1c-4.8-1.7-7.4-7-5.7-11.8l28.9-82.9c1.7-4.8,7-7.4,11.8-5.7
			l17.3,6.1c4.8,1.7,7.4,7,5.7,11.8L127,477.9C125.4,482.7,120.1,485.3,115.3,483.6z"/>
		<path id="XMLID_776_" fill="#775CA7" d="M126.7,490.4l-30.3-10.5c-3.8-1.3-5.8-5.4-4.5-9.2l4.7-13.6c1.3-3.8,5.4-5.8,9.2-4.5
			l30.3,10.5c3.8,1.3,5.8,5.4,4.5,9.2l-4.7,13.6C134.6,489.7,130.5,491.7,126.7,490.4z"/>
	</g>
	<path id="XMLID_352_" display="inline" fill="#775CA7" d="M205.6,300.1c0,0-0.3,13.1,0,26c0.2,9.2,0.3,17,3.3,25.4
		c0,0-9.6-1.7-22,2.2c-20.8,6.6-51.1,19.4-68.8,12.9c-28.1-10.3-26.8-9.2-26.8-9.2s-1.3-46.8,0-57.4H205.6z"/>
	<path id="XMLID_355_" display="inline" fill="#775CA7" d="M94.2,463.8V438c0,0,38.9,1,49.8,12.9c0,0-13.7,11.5-13.9,14.9
		S94.2,463.8,94.2,463.8z"/>
	<path id="XMLID_353_" display="inline" fill="#FFF278" d="M93.4,455.4c0,0,19.1-8.7,41.8,3.6l-2.6,3.2c0,0-27.9-6.9-38.4,1.6
		L93.4,455.4z"/>
	<path id="XMLID_351_" display="inline" opacity="0.55" fill="#775CA7" d="M91.4,292.8c0,0-1.3,102.3-17.9,128.2
		c0,0,33.4,19.9,80.5,16.6s61.1-12.6,67.7-16.5c0,0,4.6-19,1.3-33.6c-1.9-8.4-5-15.5-8.4-24.9c-4.1-11.3-6-15.5-7.2-26.6
		c-1.9-17.1-2.2-34.1-1.8-40.5L91.4,292.8z"/>
	<g id="XMLID_369_" display="inline">
		<circle id="XMLID_357_" fill="#C5C9E6" cx="454.6" cy="95.8" r="41.4"/>
		<path id="XMLID_359_" fill="#5D4137" d="M413.5,112.6L115.7,293.4c0,0-6.1,6.8,7.9,8.3l300.1-178.4
			C423.6,123.3,428.4,103.6,413.5,112.6z"/>
		<path id="XMLID_381_" fill="#E8EAF6" d="M485,114.1c-2.1,3.1-4.6,5.6-7.5,7.6c-0.5,0.4-1,0.7-1.5,1c-1.7,0.8-3.8,0.7-5.5-0.5
			c-2.6-1.8-3.3-5.3-1.6-7.9c0.4-0.6,1-1.2,1.6-1.6c0,0,0.1,0,0.1,0c0.2-0.1,0.4-0.2,0.7-0.4c0,0,0,0,0,0c1.9-1.1,3.7-2.7,5-4.7
			c2.3-3.4,3-7.3,2.5-11c0,0,0,0,0,0c-0.1-0.3-0.1-0.7-0.2-1c0,0,0,0,0,0c-0.1-1.3,0.2-2.5,0.9-3.6c1.7-2.6,5.2-3.3,7.8-1.5
			c1.2,0.8,2,2,2.3,3.3c0,0.1,0,0.1,0,0.1c0.1,0.3,0.1,0.7,0.1,1c0,0.1,0,0.1,0,0.2C490.4,101.5,488.9,108.3,485,114.1z"/>
		<circle id="XMLID_360_" fill="#E8EAF6" cx="458.3" cy="123.8" r="5.6"/>
		<path id="XMLID_361_" fill="#FFFFFF" d="M485.8,108.3c-0.9,1.9-2.2,3.5-3.6,4.8c-0.2,0.2-0.5,0.5-0.8,0.7
			c-0.9,0.6-2.1,0.6-3.1,0.1c-1.6-0.8-2.2-2.7-1.5-4.3c0.2-0.4,0.5-0.7,0.8-1c0,0,0,0,0,0c0.1-0.1,0.2-0.2,0.3-0.3c0,0,0,0,0,0
			c1-0.8,1.8-1.8,2.4-3c1-2,1.2-4.3,0.6-6.3c0,0,0,0,0,0c-0.1-0.2-0.1-0.4-0.2-0.6c0,0,0,0,0,0c-0.2-0.7-0.1-1.4,0.3-2.1
			c0.8-1.5,2.7-2.2,4.2-1.4c0.7,0.4,1.3,1,1.5,1.7c0,0,0,0,0,0.1c0.1,0.2,0.1,0.4,0.1,0.6c0,0,0,0.1,0,0.1
			C487.9,100.9,487.5,104.8,485.8,108.3z"/>
		<circle id="XMLID_362_" fill="#FFFFFF" cx="459.3" cy="125.2" r="2.9"/>
	</g>
	<g id="XMLID_789_" display="inline">
		<path id="XMLID_143_" fill="#FFE0B2" d="M169.3,275.8l-9.8-13.8c-2.7-3.8-1.8-9.2,2-11.9l67.7-48.3c3.8-2.7,9.2-1.8,11.9,2
			l9.8,13.8c2.7,3.8,1.8,9.2-2,11.9l-67.7,48.3C177.4,280.5,172,279.6,169.3,275.8z"/>
		<path id="XMLID_141_" fill="#8067AD" d="M196.1,260.1l-10.6,13.2c-2.9,3.7-8.3,4.3-12,1.3l-65-51.9c-3.7-2.9-4.3-8.3-1.3-12
			l10.6-13.2c2.9-3.7,8.3-4.3,12-1.3l65,51.9C198.4,251.1,199,256.4,196.1,260.1z"/>
	</g>
	<path id="XMLID_350_" display="inline" fill="#8067AD" d="M173.8,231.4c0,0,9.5,2.2,20.7-5.3c0,0,7.4,37.2,4.9,69.3
		c-2.5,32-6.1,46.5-6.1,46.5s-8.9-38.5-16.3-49c-7.4-10.5-15.3-27.8-21.9-33c-6.7-5.2-1-24.3-1-24.3L173.8,231.4z"/>
</g>
<g id="Layer_2">
	<g id="XMLID_950_">
		<defs>
			<path id="XMLID_952_" d="M161.1,285.4c0,0,26.3,0.7,35.7,3.4c0,0,18.2,49.2,11.8,90.5c0,0-44.5-20.5-59.5-57.8
				C149.1,321.5,154.1,294.7,161.1,285.4z"/>
		</defs>
		<use xlink:href="#XMLID_952_"  overflow="visible" fill="#8A8A8A"/>
		<clipPath id="XMLID_4_">
			<use xlink:href="#XMLID_952_"  overflow="visible"/>
		</clipPath>
		
			<ellipse id="XMLID_953_" transform="matrix(-0.9493 0.3142 -0.3142 -0.9493 461.4662 569.2617)" clip-path="url(#XMLID_4_)" fill="#8A8A8A" cx="184.9" cy="321.8" rx="49" ry="65.2"/>
	</g>
	<path id="XMLID_941_" fill="#434343" d="M129.3,40.7c0,0,0.6,89.7-3.6,111.5c0,0,7.9,14.8,28.6,15.9c20.7,1.1,44.5-1.1,48.2-3.2
		c0,0-26.5-38.7-28.6-48.7c-2.1-10.1,6.4-44.5,6.4-44.5L159,42.5L129.3,40.7z"/>
	<g id="XMLID_937_">
		<defs>
			<path id="XMLID_915_" d="M199.4,461.7l8.1-59.9c1.7-4.5,2-9.6,0.3-14.6l-21.4-63.3c-3.8-11.2-16-17.2-27.2-13.4
				c-11.2,3.8-17.2,16-13.4,27.2l21.4,63.3c0.4,1.2,0.9,2.3,1.5,3.4l-8.1,59.7c-0.3,2.4-0.2,4.8,0.4,7c0,0,0,0,0,0
				c-1.1,8.1,4.6,15.6,12.8,16.7l18.2,2.4c8.1,1.1,15.6-4.6,16.7-12.8h0C209.6,470.6,205.6,464.2,199.4,461.7z"/>
		</defs>
		<clipPath id="XMLID_5_">
			<use xlink:href="#XMLID_915_"  overflow="visible"/>
		</clipPath>
		<polygon id="XMLID_914_" clip-path="url(#XMLID_5_)" fill="#ECC396" points="236.1,500 128.1,504.4 120.1,308.6 119.1,284.2 
			227.1,279.8 		"/>
		<path id="XMLID_938_" clip-path="url(#XMLID_5_)" fill="#434343" d="M167.2,292.9c4.3,0.9,39.8,38.7,41.1,46s9.9,87.6,9.3,97.2
			c-0.7,9.6-13.9,22.8-13.9,22.8s-23.9,11.6-44.5,0.8c-20.6-10.8-45.9-163.5-45.9-163.5L167.2,292.9z"/>
	</g>
	<g id="XMLID_934_">
		<path id="XMLID_936_" fill="#8A8A8A" d="M223,238.3l-11.5,11.5c-2.8,2.8-7.4,2.8-10.2,0L147.5,196c-2.8-2.8-2.8-7.4,0-10.2
			l11.5-11.5c2.8-2.8,7.4-2.8,10.2,0L223,228C225.8,230.8,225.8,235.4,223,238.3z"/>
		<path id="XMLID_935_" fill="#8A8A8A" d="M202.1,249.1l-11.5-11.5c-2.8-2.8-2.8-7.4,0-10.2l53.8-53.8c2.8-2.8,7.4-2.8,10.2,0
			l11.5,11.5c2.8,2.8,2.8,7.4,0,10.2l-53.8,53.8C209.6,251.9,205,251.9,202.1,249.1z"/>
	</g>
	<rect id="XMLID_933_" x="106.6" y="153.1" fill="#ECC396" width="42" height="16"/>
	<g id="XMLID_931_">
		<defs>
			<path id="XMLID_943_" d="M188.4,215.6c0-29.2-23.7-52.9-52.9-52.9h-15.7c-29.2,0-52.9,23.7-52.9,52.9V310c0,1,0.1,1.9,0.3,2.8
				c-0.2,0.9-0.3,1.8-0.3,2.6c0,15.2,26.9,27.5,60.2,27.5c33.1,0,59.9-12.2,60.1-27.3c0.8-1.7,1.2-3.7,1.2-5.7V215.6z"/>
		</defs>
		<clipPath id="XMLID_6_">
			<use xlink:href="#XMLID_943_"  overflow="visible"/>
		</clipPath>
		<rect id="XMLID_930_" x="3.5" y="117.5" clip-path="url(#XMLID_6_)" fill="#434343" width="253.6" height="294.5"/>
		<path id="XMLID_932_" clip-path="url(#XMLID_6_)" fill="#D1D1D1" d="M154.6,178.9c0,0,4.6-13.1-2.8-19.4c-7.4-6.4,42,29.7,42,29.7
			l-4.2,69.6c0,0-9.2,15.5-20.1,19.4c-10.9,3.9-24.7-88.6-24.7-88.6L154.6,178.9z"/>
		<path id="XMLID_942_" clip-path="url(#XMLID_6_)" fill="#E6E6E6" d="M93.3,164.5c0,0,43,2.7,61.3,14.5c0,0,10.8,20.9,13.4,51
			c2.6,30,1.5,48.3,1.5,48.3s-48.7,0.7-79.1-15.2c-12.9-6.8-26.7-27-28.9-32C59.2,226,57,167,93.3,164.5z"/>
	</g>
	<circle id="XMLID_929_" fill="#434343" cx="206.8" cy="85.6" r="10.9"/>
	<g id="XMLID_924_">
		<defs>
			<path id="XMLID_927_" d="M193.4,160H75.8c-7.4,0-13.4-6-13.4-13.4V34.1c0-7.4,6-13.4,13.4-13.4h117.6c7.4,0,13.4,6,13.4,13.4
				v112.4C206.8,154,200.8,160,193.4,160z"/>
		</defs>
		<clipPath id="XMLID_7_">
			<use xlink:href="#XMLID_927_"  overflow="visible"/>
		</clipPath>
		<rect id="XMLID_928_" x="16.5" y="-1" clip-path="url(#XMLID_7_)" fill="#FFE7B3" width="221.4" height="179.6"/>
		<rect id="XMLID_926_" x="61" y="135.1" clip-path="url(#XMLID_7_)" fill="#ECC396" width="149.9" height="29.7"/>
		<path id="XMLID_925_" clip-path="url(#XMLID_7_)" fill="#FFE7B3" d="M220.4,156.3H74.9c-4.4,0-8.1-3.6-8.1-8.1V35.1
			c0-4.4,3.6-8.1,8.1-8.1h145.4c4.4,0,8.1,3.6,8.1,8.1v113.1C228.4,152.7,224.8,156.3,220.4,156.3z"/>
	</g>
	<circle id="XMLID_923_" fill="#434343" cx="122.7" cy="85.6" r="10.9"/>
	<g id="XMLID_921_">
		<path id="XMLID_922_" fill="#434343" d="M178.7,105.1c4.4,0,8-3.3,8.5-7.6c0.1-0.5-0.4-1-0.9-1h-15.1c-0.6,0-1,0.5-0.9,1.1
			C170.7,101.8,174.3,105.1,178.7,105.1z"/>
	</g>
	<path id="XMLID_920_" fill="#434343" d="M187.2,17c0,0-1.5-10.8-35.5-10.4s-94,0.4-101,2.8C43.1,12,25.3,24.6,26,43.3
		c0.7,18.7,11.2,84,18.6,96.1c8.5,13.8,19.6,14.8,19.6,14.8L43,39.1l63.6-3.5L187.2,17z"/>
	<path id="XMLID_919_" fill="#434343" d="M87.5,35.2c0,0-3.5-9.2-3.8-9.9c-0.3-0.6-18.8-2.2-24.8-2.9c-6-0.6-24.4,8.3-24.4,8.3
		s6.9,81.6,8.5,92.8c0.7,4.9,6.9,21.2,6.9,21.2s8.1,11.8,16.9,9c8.8-2.8,4.4-19.7,4.8-37.5c0.2-8.6,0.2-14.3,0.2-17.8l1.4-13.9
		c6.9,11.2,14.3,20.3,14.3,20.3s-3.9-13.7-6.7-25.9c-2.8-12.2,6.7-30.5,6.7-30.5V35.2z"/>
	<g id="XMLID_912_">
		<defs>
			<path id="XMLID_946_" d="M110.6,463.2l20.5-58.8c2.7-4.2,4-9.3,3.3-14.7l-8.6-68.3c-1.5-12.1-12.6-20.7-24.7-19.1
				C89,303.8,80.5,314.9,82,327l8.6,68.3c0.2,1.3,0.5,2.6,0.8,3.8l-20.4,58.6c-0.8,2.4-1.1,4.8-1.1,7.1c0,0,0,0,0,0
				c-2.8,8,1.5,16.7,9.4,19.5l17.8,6.2c8,2.8,16.7-1.5,19.5-9.4v0C119.1,474.3,116.4,467,110.6,463.2z"/>
		</defs>
		<clipPath id="XMLID_8_">
			<use xlink:href="#XMLID_946_"  overflow="visible"/>
		</clipPath>
		<rect id="XMLID_944_" x="38.8" y="282.4" clip-path="url(#XMLID_8_)" fill="#FFE0B2" width="100.6" height="237.3"/>
		<path id="XMLID_913_" clip-path="url(#XMLID_8_)" fill="#434343" d="M69.5,287.7l55.1,11.7l17,84.8l-21.2,77.3
			c0,0-35,3.2-49.8-9.5c-8.6-7.3-14.8-56.2-14.8-56.2L69.5,287.7z"/>
	</g>
	<path id="XMLID_911_" fill="#434343" d="M171.8,16.1c0,0,21.9-6.7,33.5,10.4s11,34.2,10.4,44H76.9l2.7-51.3l75.1-1.8L171.8,16.1z"
		/>
	<path id="XMLID_910_" fill="#434343" d="M26,43.3c0,0,0.6,89.7-3.6,111.5c0,0,7.9,14.8,28.6,15.9s44.5-1.1,48.2-3.2
		c0,0-26.5-38.7-28.6-48.7c-2.1-10.1,6.4-44.5,6.4-44.5L55.7,45.1L26,43.3z"/>
	<path id="XMLID_909_" fill="#FFE7B3" d="M73.2,91.1c0,0-4.3-18.5-17-10s2.7,36.4,17,34.4V91.1z"/>
	<path id="XMLID_939_" fill="#B0B0B0" d="M189.2,283c0,0-23.3,20.7-58.8,19.6c-42.5-1.3-54-12.7-65.2-15.9l-0.5,12.7
		c0,0,34.4,13.2,59.9,15.4s44.5-5.3,53-9c8.5-3.7,11.7-7.4,11.7-7.4V283z"/>
	<g id="XMLID_947_">
		<defs>
			<path id="XMLID_945_" d="M102.6,281.1c0,0-24.8,9-32.8,14.4c0,0-1.8,52.4,17.2,89.6c0,0,35.8-33.4,38.3-73.5
				C125.3,311.7,112.2,287.8,102.6,281.1z"/>
		</defs>
		<clipPath id="XMLID_9_">
			<use xlink:href="#XMLID_945_"  overflow="visible"/>
		</clipPath>
		<ellipse id="XMLID_940_" clip-path="url(#XMLID_9_)" fill="#F0F0F0" cx="91.5" cy="323.2" rx="49" ry="65.2"/>
		<path id="XMLID_949_" clip-path="url(#XMLID_9_)" fill="#D1D1D1" d="M105,278.2c0,0-20.1,18-16.4,114.4l37.6-41.8l7.4-53.5
			L105,278.2z"/>
	</g>
	
		<ellipse id="XMLID_948_" transform="matrix(0.986 0.1667 -0.1667 0.986 53.0048 -23.7606)" fill="#8A8A8A" cx="168" cy="303.9" rx="7.4" ry="14.6"/>
	<path id="XMLID_954_" fill="#D1D1D1" d="M71.6,446.6l-10.2,32.8c0,0,0.4,2.5,10.6,4.6l2.1-1.8l0.7,2.8c0,0,18,8.5,25.8,8.8
		s16.2,0.7,22.2-0.4c0,0-0.4-10.9-2.5-18.7c-2.1-7.8-5.7-18-9.5-18S73.1,444.9,71.6,446.6z"/>
	<path id="XMLID_955_" fill="#D1D1D1" d="M159.5,454l-3.7,31.9c0,0,0.8,2.2,10.8,2.2l1.7-2l1.2,2.5c0,0,18.5,4.4,25.9,3.3
		c7.4-1.1,15.4-2.4,20.9-4.5c0,0-2.3-9.9-5.7-16.7s-8.6-15.4-12.2-14.7C194.6,456.8,160.5,452.2,159.5,454z"/>
	<g id="XMLID_962_">
		<g id="XMLID_960_">
			<defs>
				<polygon id="XMLID_958_" points="354.5,10.9 390.8,-2.3 387.3,36 273.8,170.4 255.3,156.2 				"/>
			</defs>
			<clipPath id="XMLID_10_">
				<use xlink:href="#XMLID_958_"  overflow="visible"/>
			</clipPath>
			
				<rect id="XMLID_959_" x="290.5" y="-32.8" transform="matrix(0.7943 0.6075 -0.6075 0.7943 115.5266 -182.1895)" clip-path="url(#XMLID_10_)" fill="#E6E6E6" width="72.6" height="224.6"/>
			<polygon id="XMLID_961_" clip-path="url(#XMLID_10_)" fill="#D1D1D1" points="390.8,-2.3 260.8,167.7 304.4,201.7 392.7,50.5 			
				"/>
		</g>
		<path id="XMLID_956_" fill="#4A4A4A" d="M233.4,224.5c-3.8,5-11.5,5.5-17.2,1.2c-5.7-4.4-7.2-11.9-3.4-16.9
			C216.6,203.8,237.3,219.5,233.4,224.5z"/>
		
			<rect id="XMLID_951_" x="234.7" y="156.7" transform="matrix(0.7943 0.6075 -0.6075 0.7943 165.0824 -109.4745)" fill="#5D4137" width="19.1" height="64.6"/>
		<path id="XMLID_957_" fill="#4A4A4A" d="M282.1,181.4l-40.4-30.9c-0.8-0.6-1-1.8-0.4-2.6l2.5-3.3c0.6-0.8,1.8-1,2.6-0.4l40.4,30.9
			c0.8,0.6,1,1.8,0.4,2.6l-2.5,3.3C284.1,181.8,282.9,182,282.1,181.4z"/>
	</g>
	<g id="XMLID_916_">
		<path id="XMLID_918_" fill="#B0B0B0" d="M178.6,247.8l-11.9,14.9c-2.9,3.7-8.3,4.3-12,1.3l-69.9-55.8c-3.7-2.9-4.3-8.3-1.3-12
			l11.9-14.9c2.9-3.7,8.3-4.3,12-1.3l69.9,55.8C180.9,238.7,181.5,244.1,178.6,247.8z"/>
		<path id="XMLID_917_" fill="#B0B0B0" d="M150.1,265.3L139,249.8c-2.7-3.8-1.8-9.2,2-11.9l72.9-51.9c3.8-2.7,9.2-1.8,11.9,2
			l11.1,15.5c2.7,3.8,1.8,9.2-2,11.9L162,267.3C158.1,270,152.8,269.1,150.1,265.3z"/>
	</g>
	<circle id="XMLID_872_" fill="#A3A3A3" cx="97.8" cy="192" r="33.5"/>
</g>
</svg>
